<svg width="230" height="61" viewBox="0 0 230 61" fill="none" xmlns="http://www.w3.org/2000/svg">
<path d="M34 60.9999C30.0269 60.9999 26.3059 60.2469 22.8372 58.7408C19.3684 57.2347 16.3488 55.1987 13.7785 52.6329C11.2081 50.067 9.16862 47.0527 7.6599 43.59C6.15118 40.1272 5.39576 36.4117 5.39364 32.4434C5.39152 28.4751 6.14694 24.7606 7.6599 21.3C9.17286 17.8394 11.2113 14.8251 13.7753 12.2571C16.3393 9.68913 19.3588 7.65315 22.834 6.14917C26.3091 4.6452 30.0311 3.89109 34 3.88686C37.9689 3.88263 41.6909 4.63673 45.166 6.14917C48.6412 7.66161 51.6607 9.69759 54.2247 12.2571C56.7887 14.8166 58.8282 17.8309 60.3433 21.3C61.8583 24.7691 62.6127 28.4836 62.6063 32.4434C62.6 36.4032 61.8456 40.1188 60.3433 43.59C58.8409 47.0612 56.8014 50.0755 54.2247 52.6329C51.648 55.1903 48.6284 57.2262 45.166 58.7408C41.7036 60.2553 37.9816 61.0084 34 60.9999ZM2.37408 14.3576C1.79136 13.7759 1.5 13.0355 1.5 12.1365C1.5 11.2375 1.79136 10.4972 2.37408 9.91546L11.4328 0.87256C12.0155 0.290853 12.7571 0 13.6577 0C14.5583 0 15.2999 0.290853 15.8826 0.87256C16.4654 1.45427 16.7567 2.19462 16.7567 3.09362C16.7567 3.99263 16.4654 4.73298 15.8826 5.31469L6.82396 14.3576C6.24124 14.9393 5.49959 15.2302 4.59902 15.2302C3.69845 15.2302 2.9568 14.9393 2.37408 14.3576ZM65.6259 14.3576C65.0432 14.9393 64.3015 15.2302 63.401 15.2302C62.5004 15.2302 61.7588 14.9393 61.176 14.3576L52.1174 5.31469C51.5346 4.73298 51.2433 3.99263 51.2433 3.09362C51.2433 2.19462 51.5346 1.45427 52.1174 0.87256C52.7001 0.290853 53.4417 0 54.3423 0C55.2429 0 55.9845 0.290853 56.5672 0.87256L65.6259 9.91546C66.2086 10.4972 66.5 11.2375 66.5 12.1365C66.5 13.0355 66.2086 13.7759 65.6259 14.3576Z" fill="white"/>
<path d="M26.25 47.1053V48.0789C26.25 48.8904 25.9678 49.5804 25.4033 50.149C24.8389 50.7176 24.1523 51.0013 23.3438 51C22.5352 50.9987 21.8493 50.715 21.2861 50.149C20.723 49.583 20.4401 48.8929 20.4375 48.0789V45.0605C19.8562 44.4114 19.388 43.6896 19.0328 42.8951C18.6776 42.1005 18.5 41.232 18.5 40.2895V21.7895C18.5 19.0956 19.7432 17.1242 22.2297 15.8753C24.7161 14.6264 28.6396 14.0013 34 14C39.5542 14 43.526 14.6004 45.9156 15.8013C48.3052 17.0022 49.5 18.9982 49.5 21.7895V40.2895C49.5 41.2307 49.3224 42.0992 48.9672 42.8951C48.612 43.6909 48.1437 44.4127 47.5625 45.0605V48.0789C47.5625 48.8904 47.2803 49.5804 46.7158 50.149C46.1514 50.7176 45.4648 51.0013 44.6562 51C43.8477 50.9987 43.1618 50.715 42.5986 50.149C42.0355 49.583 41.7526 48.8929 41.75 48.0789V47.1053H26.25ZM22.375 26.6579C22.375 28.2711 23.6828 29.5789 25.2961 29.5789H42.7039C44.3172 29.5789 45.625 28.2711 45.625 26.6579C45.625 25.0446 44.3172 23.7368 42.7039 23.7368H25.2961C23.6828 23.7368 22.375 25.0446 22.375 26.6579ZM27.2188 41.2632C28.026 41.2632 28.7126 40.9795 29.2783 40.4122C29.8441 39.8448 30.1263 39.1548 30.125 38.3421C30.1237 37.5294 29.8415 36.84 29.2783 36.274C28.7151 35.708 28.0286 35.4237 27.2188 35.4211C26.4089 35.4185 25.723 35.7028 25.1611 36.274C24.5992 36.8452 24.3164 37.5346 24.3125 38.3421C24.3086 39.1496 24.5915 39.8396 25.1611 40.4122C25.7308 40.9847 26.4166 41.2684 27.2188 41.2632ZM40.7812 41.2632C41.5885 41.2632 42.2751 40.9795 42.8408 40.4122C43.4066 39.8448 43.6888 39.1548 43.6875 38.3421C43.6862 37.5294 43.404 36.84 42.8408 36.274C42.2776 35.708 41.5911 35.4237 40.7812 35.4211C39.9714 35.4185 39.2855 35.7028 38.7236 36.274C38.1617 36.8452 37.8789 37.5346 37.875 38.3421C37.8711 39.1496 38.154 39.8396 38.7236 40.4122C39.2932 40.9847 39.9791 41.2684 40.7812 41.2632Z" fill="#0C2C4B"/>
<path d="M74.964 40.5V19.796H86.9C89.6733 19.796 91.7747 20.2653 93.204 21.204C94.6547 22.1213 95.38 23.4973 95.38 25.332C95.38 26.5053 95.092 27.4333 94.516 28.116C93.94 28.7773 93.1187 29.268 92.052 29.588C91.0067 29.908 89.7693 30.1107 88.34 30.196L88.468 29.972C89.5133 29.9933 90.4947 30.068 91.412 30.196C92.3507 30.324 93.172 30.5587 93.876 30.9C94.58 31.2413 95.1347 31.7213 95.54 32.34C95.9453 32.9373 96.148 33.7267 96.148 34.708C96.148 35.988 95.8067 37.0547 95.124 37.908C94.4413 38.74 93.492 39.3693 92.276 39.796C91.06 40.2227 89.652 40.4573 88.052 40.5H74.964ZM79.22 36.98H87.604C88.948 36.98 89.9827 36.7667 90.708 36.34C91.4333 35.892 91.796 35.188 91.796 34.228C91.796 33.524 91.5827 33.012 91.156 32.692C90.7293 32.372 90.164 32.18 89.46 32.116C88.756 32.0307 87.9987 31.988 87.188 31.988H79.22V36.98ZM79.22 28.564H86.74C88.084 28.564 89.1187 28.372 89.844 27.988C90.5693 27.5827 90.932 26.9 90.932 25.94C90.932 24.98 90.5693 24.308 89.844 23.924C89.1187 23.5187 88.1587 23.316 86.964 23.316H79.22V28.564ZM117.789 40.5H113.629V24.596H117.789V40.5ZM113.853 32.852L113.885 33.94C113.842 34.2387 113.735 34.676 113.565 35.252C113.394 35.8067 113.127 36.404 112.765 37.044C112.423 37.684 111.975 38.3027 111.421 38.9C110.866 39.476 110.183 39.956 109.373 40.34C108.562 40.7027 107.602 40.884 106.493 40.884C105.618 40.884 104.754 40.7773 103.901 40.564C103.069 40.3507 102.311 39.9987 101.629 39.508C100.946 38.996 100.402 38.3133 99.9968 37.46C99.5914 36.6067 99.3888 35.5293 99.3888 34.228V24.596H103.549V33.524C103.549 34.548 103.709 35.3587 104.029 35.956C104.37 36.532 104.861 36.9373 105.501 37.172C106.141 37.4067 106.898 37.524 107.773 37.524C108.925 37.524 109.917 37.2787 110.749 36.788C111.581 36.276 112.253 35.6573 112.765 34.932C113.298 34.2067 113.661 33.5133 113.853 32.852ZM120.936 35.22H124.776C125.011 35.9453 125.491 36.5427 126.216 37.012C126.963 37.46 127.934 37.684 129.128 37.684C129.939 37.684 130.568 37.6093 131.016 37.46C131.464 37.3107 131.774 37.0973 131.944 36.82C132.115 36.5213 132.2 36.1907 132.2 35.828C132.2 35.38 132.062 35.0387 131.784 34.804C131.507 34.548 131.08 34.3453 130.504 34.196C129.928 34.0467 129.192 33.908 128.296 33.78C127.4 33.6307 126.536 33.4493 125.704 33.236C124.872 33.0227 124.136 32.7453 123.496 32.404C122.856 32.0413 122.344 31.5933 121.96 31.06C121.598 30.5053 121.416 29.8333 121.416 29.044C121.416 28.276 121.598 27.5933 121.96 26.996C122.344 26.3987 122.867 25.8973 123.528 25.492C124.211 25.0867 125 24.7773 125.896 24.564C126.814 24.3507 127.795 24.244 128.84 24.244C130.419 24.244 131.731 24.4787 132.776 24.948C133.822 25.396 134.6 26.036 135.112 26.868C135.646 27.6787 135.912 28.6173 135.912 29.684H132.232C132.062 28.8947 131.72 28.3293 131.208 27.988C130.696 27.6253 129.907 27.444 128.84 27.444C127.795 27.444 127.006 27.604 126.472 27.924C125.939 28.244 125.672 28.6813 125.672 29.236C125.672 29.684 125.832 30.036 126.152 30.292C126.494 30.5267 126.984 30.7187 127.624 30.868C128.286 31.0173 129.107 31.1773 130.088 31.348C130.92 31.5187 131.71 31.7107 132.456 31.924C133.224 32.1373 133.907 32.4147 134.504 32.756C135.102 33.076 135.571 33.5133 135.912 34.068C136.275 34.6013 136.456 35.284 136.456 36.116C136.456 37.14 136.158 38.004 135.56 38.708C134.984 39.412 134.152 39.956 133.064 40.34C131.976 40.7027 130.675 40.884 129.16 40.884C127.816 40.884 126.654 40.7453 125.672 40.468C124.712 40.1693 123.912 39.796 123.272 39.348C122.632 38.8787 122.131 38.388 121.768 37.876C121.427 37.3427 121.192 36.8413 121.064 36.372C120.936 35.9027 120.894 35.5187 120.936 35.22ZM143.863 33.78V30.388H153.335C154.465 30.388 155.361 30.0893 156.023 29.492C156.684 28.8733 157.015 28.02 157.015 26.932C157.015 25.8013 156.684 24.9373 156.023 24.34C155.361 23.7427 154.465 23.444 153.335 23.444H144.375V40.5H140.119V19.796H152.951C154.103 19.796 155.18 19.9347 156.183 20.212C157.207 20.4893 158.092 20.916 158.839 21.492C159.607 22.068 160.204 22.804 160.631 23.7C161.057 24.596 161.271 25.6733 161.271 26.932C161.271 28.1693 161.057 29.2253 160.631 30.1C160.204 30.9747 159.607 31.6893 158.839 32.244C158.092 32.7773 157.207 33.172 156.183 33.428C155.18 33.6627 154.103 33.78 152.951 33.78H143.863ZM173.577 40.884C171.572 40.884 169.801 40.564 168.265 39.924C166.751 39.284 165.567 38.356 164.713 37.14C163.86 35.9027 163.433 34.388 163.433 32.596C163.433 30.804 163.86 29.2893 164.713 28.052C165.567 26.7933 166.751 25.844 168.265 25.204C169.801 24.564 171.572 24.244 173.577 24.244C175.583 24.244 177.332 24.564 178.825 25.204C180.34 25.844 181.524 26.7933 182.377 28.052C183.231 29.2893 183.657 30.804 183.657 32.596C183.657 34.388 183.231 35.9027 182.377 37.14C181.524 38.356 180.34 39.284 178.825 39.924C177.332 40.564 175.583 40.884 173.577 40.884ZM173.577 37.684C174.687 37.684 175.679 37.492 176.553 37.108C177.449 36.7027 178.153 36.1267 178.665 35.38C179.177 34.612 179.433 33.684 179.433 32.596C179.433 31.508 179.177 30.58 178.665 29.812C178.153 29.0227 177.46 28.4253 176.585 28.02C175.711 27.6147 174.708 27.412 173.577 27.412C172.468 27.412 171.465 27.6147 170.569 28.02C169.673 28.4253 168.959 29.012 168.425 29.78C167.913 30.548 167.657 31.4867 167.657 32.596C167.657 33.684 167.913 34.612 168.425 35.38C168.937 36.1267 169.641 36.7027 170.537 37.108C171.433 37.492 172.447 37.684 173.577 37.684ZM191.501 17.62V21.268H186.669V17.62H191.501ZM186.989 24.596H191.149V40.5H186.989V24.596ZM195.295 24.596H199.455V40.5H195.295V24.596ZM206.847 24.244C207.828 24.244 208.735 24.372 209.567 24.628C210.399 24.884 211.124 25.2787 211.743 25.812C212.362 26.3453 212.842 27.028 213.183 27.86C213.524 28.6707 213.695 29.6413 213.695 30.772V40.5H209.535V31.508C209.535 30.164 209.204 29.1827 208.543 28.564C207.903 27.924 206.847 27.604 205.375 27.604C204.266 27.604 203.263 27.8173 202.367 28.244C201.471 28.6707 200.746 29.2147 200.191 29.876C199.636 30.516 199.316 31.188 199.231 31.892L199.199 30.26C199.306 29.5133 199.551 28.788 199.935 28.084C200.319 27.38 200.831 26.74 201.471 26.164C202.132 25.5667 202.911 25.0973 203.807 24.756C204.703 24.4147 205.716 24.244 206.847 24.244ZM216.363 24.596H228.715V27.828H216.363V24.596ZM220.459 20.244H224.619V40.5H220.459V20.244Z" fill="white"/>
</svg>
