<svg width="97" height="16" viewBox="0 0 97 16" fill="none" xmlns="http://www.w3.org/2000/svg">
<path d="M0.54 15V2.06H8C9.73333 2.06 11.0467 2.35333 11.94 2.94C12.8467 3.51333 13.3 4.37333 13.3 5.52C13.3 6.25333 13.12 6.83333 12.76 7.26C12.4 7.67333 11.8867 7.98 11.22 8.18C10.5667 8.38 9.79333 8.50667 8.9 8.56L8.98 8.42C9.63333 8.43333 10.2467 8.48 10.82 8.56C11.4067 8.64 11.92 8.78667 12.36 9C12.8 9.21333 13.1467 9.51333 13.4 9.9C13.6533 10.2733 13.78 10.7667 13.78 11.38C13.78 12.18 13.5667 12.8467 13.14 13.38C12.7133 13.9 12.12 14.2933 11.36 14.56C10.6 14.8267 9.72 14.9733 8.72 15H0.54ZM3.2 12.8H8.44C9.28 12.8 9.92667 12.6667 10.38 12.4C10.8333 12.12 11.06 11.68 11.06 11.08C11.06 10.64 10.9267 10.32 10.66 10.12C10.3933 9.92 10.04 9.8 9.6 9.76C9.16 9.70667 8.68667 9.68 8.18 9.68H3.2V12.8ZM3.2 7.54H7.9C8.74 7.54 9.38667 7.42 9.84 7.18C10.2933 6.92667 10.52 6.5 10.52 5.9C10.52 5.3 10.2933 4.88 9.84 4.64C9.38667 4.38667 8.78667 4.26 8.04 4.26H3.2V7.54ZM27.3055 15H24.7055V5.06H27.3055V15ZM24.8455 10.22L24.8655 10.9C24.8388 11.0867 24.7721 11.36 24.6655 11.72C24.5588 12.0667 24.3921 12.44 24.1655 12.84C23.9521 13.24 23.6721 13.6267 23.3255 14C22.9788 14.36 22.5521 14.66 22.0455 14.9C21.5388 15.1267 20.9388 15.24 20.2455 15.24C19.6988 15.24 19.1588 15.1733 18.6255 15.04C18.1055 14.9067 17.6321 14.6867 17.2055 14.38C16.7788 14.06 16.4388 13.6333 16.1855 13.1C15.9321 12.5667 15.8055 11.8933 15.8055 11.08V5.06H18.4055V10.64C18.4055 11.28 18.5055 11.7867 18.7055 12.16C18.9188 12.52 19.2255 12.7733 19.6255 12.92C20.0255 13.0667 20.4988 13.14 21.0455 13.14C21.7655 13.14 22.3855 12.9867 22.9055 12.68C23.4255 12.36 23.8455 11.9733 24.1655 11.52C24.4988 11.0667 24.7255 10.6333 24.8455 10.22ZM29.2727 11.7H31.6727C31.8193 12.1533 32.1193 12.5267 32.5727 12.82C33.0393 13.1 33.646 13.24 34.3927 13.24C34.8993 13.24 35.2927 13.1933 35.5727 13.1C35.8527 13.0067 36.046 12.8733 36.1527 12.7C36.2593 12.5133 36.3127 12.3067 36.3127 12.08C36.3127 11.8 36.226 11.5867 36.0527 11.44C35.8793 11.28 35.6127 11.1533 35.2527 11.06C34.8927 10.9667 34.4327 10.88 33.8727 10.8C33.3127 10.7067 32.7727 10.5933 32.2527 10.46C31.7327 10.3267 31.2727 10.1533 30.8727 9.94C30.4727 9.71333 30.1527 9.43333 29.9127 9.1C29.686 8.75333 29.5727 8.33333 29.5727 7.84C29.5727 7.36 29.686 6.93333 29.9127 6.56C30.1527 6.18667 30.4793 5.87333 30.8927 5.62C31.3193 5.36667 31.8127 5.17333 32.3727 5.04C32.946 4.90667 33.5593 4.84 34.2127 4.84C35.1993 4.84 36.0193 4.98667 36.6727 5.28C37.326 5.56 37.8127 5.96 38.1327 6.48C38.466 6.98667 38.6327 7.57333 38.6327 8.24H36.3327C36.226 7.74667 36.0127 7.39333 35.6927 7.18C35.3727 6.95333 34.8793 6.84 34.2127 6.84C33.5593 6.84 33.066 6.94 32.7327 7.14C32.3993 7.34 32.2327 7.61333 32.2327 7.96C32.2327 8.24 32.3327 8.46 32.5327 8.62C32.746 8.76667 33.0527 8.88667 33.4527 8.98C33.866 9.07333 34.3793 9.17333 34.9927 9.28C35.5127 9.38667 36.006 9.50667 36.4727 9.64C36.9527 9.77333 37.3793 9.94667 37.7527 10.16C38.126 10.36 38.4193 10.6333 38.6327 10.98C38.8593 11.3133 38.9727 11.74 38.9727 12.26C38.9727 12.9 38.786 13.44 38.4127 13.88C38.0527 14.32 37.5327 14.66 36.8527 14.9C36.1727 15.1267 35.3593 15.24 34.4127 15.24C33.5727 15.24 32.846 15.1533 32.2327 14.98C31.6327 14.7933 31.1327 14.56 30.7327 14.28C30.3327 13.9867 30.0193 13.68 29.7927 13.36C29.5793 13.0267 29.4327 12.7133 29.3527 12.42C29.2727 12.1267 29.246 11.8867 29.2727 11.7ZM43.6017 10.8V8.68H49.5217C50.2284 8.68 50.7884 8.49333 51.2017 8.12C51.6151 7.73333 51.8217 7.2 51.8217 6.52C51.8217 5.81333 51.6151 5.27333 51.2017 4.9C50.7884 4.52667 50.2284 4.34 49.5217 4.34H43.9217V15H41.2617V2.06H49.2817C50.0017 2.06 50.6751 2.14667 51.3017 2.32C51.9417 2.49333 52.4951 2.76 52.9617 3.12C53.4417 3.48 53.8151 3.94 54.0817 4.5C54.3484 5.06 54.4817 5.73333 54.4817 6.52C54.4817 7.29333 54.3484 7.95333 54.0817 8.5C53.8151 9.04667 53.4417 9.49333 52.9617 9.84C52.4951 10.1733 51.9417 10.42 51.3017 10.58C50.6751 10.7267 50.0017 10.8 49.2817 10.8H43.6017ZM62.1733 15.24C60.9199 15.24 59.8133 15.04 58.8533 14.64C57.9066 14.24 57.1666 13.66 56.6333 12.9C56.0999 12.1267 55.8333 11.18 55.8333 10.06C55.8333 8.94 56.0999 7.99333 56.6333 7.22C57.1666 6.43333 57.9066 5.84 58.8533 5.44C59.8133 5.04 60.9199 4.84 62.1733 4.84C63.4266 4.84 64.5199 5.04 65.4533 5.44C66.3999 5.84 67.1399 6.43333 67.6733 7.22C68.2066 7.99333 68.4733 8.94 68.4733 10.06C68.4733 11.18 68.2066 12.1267 67.6733 12.9C67.1399 13.66 66.3999 14.24 65.4533 14.64C64.5199 15.04 63.4266 15.24 62.1733 15.24ZM62.1733 13.24C62.8666 13.24 63.4866 13.12 64.0333 12.88C64.5933 12.6267 65.0333 12.2667 65.3533 11.8C65.6733 11.32 65.8333 10.74 65.8333 10.06C65.8333 9.38 65.6733 8.8 65.3533 8.32C65.0333 7.82667 64.5999 7.45333 64.0533 7.2C63.5066 6.94667 62.8799 6.82 62.1733 6.82C61.4799 6.82 60.8533 6.94667 60.2933 7.2C59.7333 7.45333 59.2866 7.82 58.9533 8.3C58.6333 8.78 58.4733 9.36667 58.4733 10.06C58.4733 10.74 58.6333 11.32 58.9533 11.8C59.2733 12.2667 59.7133 12.6267 60.2733 12.88C60.8333 13.12 61.4666 13.24 62.1733 13.24ZM73.3753 0.699999V2.98H70.3553V0.699999H73.3753ZM70.5553 5.06H73.1553V15H70.5553V5.06ZM75.7469 5.06H78.3469V15H75.7469V5.06ZM82.9669 4.84C83.5802 4.84 84.1469 4.92 84.6669 5.08C85.1869 5.24 85.6402 5.48667 86.0269 5.82C86.4135 6.15333 86.7135 6.58 86.9269 7.1C87.1402 7.60667 87.2469 8.21333 87.2469 8.92V15H84.6469V9.38C84.6469 8.54 84.4402 7.92667 84.0269 7.54C83.6269 7.14 82.9669 6.94 82.0469 6.94C81.3535 6.94 80.7269 7.07333 80.1669 7.34C79.6069 7.60667 79.1535 7.94667 78.8069 8.36C78.4602 8.76 78.2602 9.18 78.2069 9.62L78.1869 8.6C78.2535 8.13333 78.4069 7.68 78.6469 7.24C78.8869 6.8 79.2069 6.4 79.6069 6.04C80.0202 5.66667 80.5069 5.37333 81.0669 5.16C81.6269 4.94667 82.2602 4.84 82.9669 4.84ZM88.9141 5.06H96.6341V7.08H88.9141V5.06ZM91.4741 2.34H94.0741V15H91.4741V2.34Z" fill="white"/>
</svg>
